<svg width="1154" height="512" viewBox="0 0 1154 512" fill="none" xmlns="http://www.w3.org/2000/svg">
<g filter="url(#filter0_ii_6_2)">
<path d="M256 0C260.6 0 265.2 1 269.4 2.9L457.7 82.8C479.7 92.1 496.1 113.8 496 140C495.5 239.2 454.7 420.7 282.3 503.2C265.6 511.2 246.2 511.2 229.5 503.2C57.3 420.7 16.5 239.2 16 140C15.9 113.8 32.3 92.1 54.3 82.8L242.7 2.9C246.8 1 251.4 0 256 0Z" fill="#6667AB"/>
<path d="M256 0C260.6 0 265.2 1 269.4 2.9L457.7 82.8C479.7 92.1 496.1 113.8 496 140C495.5 239.2 454.7 420.7 282.3 503.2C265.6 511.2 246.2 511.2 229.5 503.2C57.3 420.7 16.5 239.2 16 140C15.9 113.8 32.3 92.1 54.3 82.8L242.7 2.9C246.8 1 251.4 0 256 0Z" fill="url(#paint0_radial_6_2)"/>
<g filter="url(#filter1_d_6_2)">
<path d="M235.779 367.059C235.779 363.745 238.466 361.059 241.779 361.059H271.779C275.093 361.059 277.779 363.745 277.779 367.059V397.059C277.779 400.372 275.093 403.059 271.779 403.059H241.779C238.466 403.059 235.779 400.372 235.779 397.059V367.059Z" fill="white"/>
<path d="M180.986 146.5C173.662 146.5 170 143.326 170 136.979V118.521C170 112.174 173.662 109 180.986 109H331.572C338.896 109 342.559 112.174 342.559 118.521V136.979C342.559 143.326 338.896 146.5 331.572 146.5H288.652V146.537C281.328 146.537 277.666 149.711 277.666 156.059V311.002C277.666 316.373 275.225 319.059 270.342 319.059H242.217C237.334 319.059 234.893 316.373 234.893 311.002V156.059C234.893 149.711 231.23 146.537 223.906 146.537V146.5H180.986Z" fill="white"/>
</g>
<path d="M234.893 156.059C234.893 149.711 231.23 146.537 223.906 146.537V146.5H180.986C177.63 146.5 175.042 145.833 173.224 144.5L234.893 206.169V156.059Z" fill="black" fill-opacity="0.06"/>
<path d="M342.559 118.521V136.979C342.559 143.326 338.896 146.5 331.572 146.5H288.652V146.537C281.328 146.537 277.666 149.711 277.666 156.059V311.002C277.666 316.373 275.225 319.059 270.342 319.059H242.217C239.953 319.059 238.214 318.481 237 317.327L366.641 446.968C429.116 390.648 463.426 318.388 480.734 252.359L340.793 112.417C341.97 113.942 342.559 115.976 342.559 118.521Z" fill="black" fill-opacity="0.06"/>
<path d="M277.779 367.059V397.059C277.779 400.372 275.093 403.059 271.779 403.059H241.779C240.142 403.059 238.657 402.402 237.574 401.339L319.136 482.9C335.161 472.805 349.819 461.774 363.215 450.016L276.198 363C277.18 364.068 277.779 365.493 277.779 367.059Z" fill="black" fill-opacity="0.06"/>
<path d="M373.571 325.411C369.181 325.411 366.986 323.126 366.986 318.556V172.331C366.986 167.762 369.181 165.477 373.571 165.477H386.157C390.548 165.477 392.743 167.762 392.743 172.331V318.556C392.743 323.126 390.548 325.411 386.157 325.411H373.571ZM373.571 136.536C369.181 136.536 366.986 134.252 366.986 129.682V116.583C366.986 112.013 369.181 109.728 373.571 109.728H386.157C390.548 109.728 392.743 112.013 392.743 116.583V129.682C392.743 134.252 390.548 136.536 386.157 136.536H373.571Z" fill="white"/>
<path d="M426.842 185.583C422.452 185.583 420.257 183.806 420.257 180.252V170.808C420.257 167.254 422.452 165.477 426.842 165.477H444.111V151.768C444.111 149.737 444.599 147.808 445.575 145.98L455.819 126.636C457.673 123.082 459.185 121.305 460.356 121.305H465.478C468.405 121.305 469.869 123.082 469.869 126.636V165.477H501.041C505.432 165.477 507.627 167.254 507.627 170.808V180.252C507.627 183.806 505.432 185.583 501.041 185.583H469.869V282.609C469.869 293.272 471.381 300.227 474.406 303.477C477.528 306.625 481.235 308.199 485.528 308.199C488.845 308.199 492.797 307.183 497.382 305.152C502.066 303.121 505.285 301.395 507.041 299.974C508.798 298.552 510.163 299.009 511.139 301.344L515.969 313.073C516.749 315.104 516.164 316.728 514.212 317.947C510.407 320.283 504.846 322.567 497.529 324.801C490.211 326.934 482.894 328 475.576 328C465.43 328 457.624 324.192 452.161 316.576C446.794 308.96 444.111 298.196 444.111 284.285V185.583H426.842Z" fill="white"/>
<path d="M536.897 245.444C536.897 221.581 542.946 201.881 555.044 186.344C567.24 170.706 585.045 162.887 608.461 162.887C631.877 162.887 649.634 170.706 661.732 186.344C673.928 201.881 680.026 221.581 680.026 245.444C680.026 269.307 673.928 289.057 661.732 304.695C649.634 320.232 631.877 328 608.461 328C585.045 328 567.24 320.232 555.044 304.695C542.946 289.057 536.897 269.307 536.897 245.444ZM564.117 245.444C564.117 266.768 568.166 282.559 576.264 292.815C584.362 303.071 595.095 308.199 608.461 308.199C621.828 308.199 632.56 303.071 640.658 292.815C648.756 282.559 652.805 266.768 652.805 245.444C652.805 224.119 648.756 208.329 640.658 198.073C632.56 187.817 621.828 182.689 608.461 182.689C595.095 182.689 584.362 187.817 576.264 198.073C568.166 208.329 564.117 224.119 564.117 245.444Z" fill="white"/>
<path d="M719.833 325.411C715.442 325.411 713.247 323.126 713.247 318.556V172.331C713.247 167.762 715.442 165.477 719.833 165.477H732.126C736.516 165.477 738.712 167.762 738.712 172.331V190.609H739.297C743.98 181.47 749.493 174.565 755.834 169.894C762.176 165.223 770.079 162.887 779.543 162.887C785.787 162.887 790.178 163.446 792.714 164.563C794.958 165.477 795.788 167 795.202 169.132L791.836 181.623C791.348 183.45 790.08 184.161 788.031 183.755C784.616 183.044 781.397 182.689 778.372 182.689C766.957 182.689 757.542 188.071 750.127 198.834C742.712 209.497 739.004 224.068 739.004 242.55V318.556C739.004 323.126 736.809 325.411 732.419 325.411H719.833Z" fill="white"/>
<path d="M810.569 245.444C810.569 220.26 816.618 200.205 828.716 185.278C840.814 170.351 858.132 162.887 880.67 162.887C899.403 162.887 914.915 169.742 927.209 183.45C939.6 197.057 945.795 218.839 945.795 248.795C945.795 253.364 943.795 255.649 939.795 255.649H837.79C839.448 275.247 844.522 288.905 853.01 296.623C861.498 304.238 871.108 308.046 881.841 308.046C893.158 308.046 901.842 306.066 907.891 302.106C913.94 298.146 918.379 294.236 921.208 290.377C924.331 286.113 927.355 285.3 930.282 287.94L938.917 295.709C941.161 297.74 941.161 300.532 938.917 304.086C937.063 307.031 931.746 311.753 922.965 318.252C914.281 324.751 900.573 328 881.841 328C857.449 328 839.448 320.536 827.838 305.609C816.325 290.682 810.569 270.627 810.569 245.444ZM837.204 235.848H919.891C919.501 221.631 915.989 209.192 909.354 198.53C902.72 187.766 892.963 182.384 880.084 182.384C868.767 182.384 859.157 186.344 851.254 194.265C843.351 202.084 838.668 215.945 837.204 235.848Z" fill="white"/>
<path d="M986.187 325.411C981.797 325.411 979.602 323.126 979.602 318.556V128.464C979.602 126.433 980.09 124.503 981.065 122.675L991.31 103.331C993.163 99.777 994.676 98 995.846 98H1000.97C1003.9 98 1005.36 99.777 1005.36 103.331V318.556C1005.36 323.126 1003.16 325.411 998.773 325.411H986.187Z" fill="white"/>
<path d="M1053.51 325.411C1049.12 325.411 1046.92 323.126 1046.92 318.556V128.464C1046.92 126.433 1047.41 124.503 1048.39 122.675L1058.63 103.331C1060.48 99.777 1062 98 1063.17 98H1068.29C1071.22 98 1072.68 99.777 1072.68 103.331V318.556C1072.68 323.126 1070.48 325.411 1066.09 325.411H1053.51Z" fill="white"/>
<path d="M1120.83 325.411C1116.44 325.411 1114.24 323.126 1114.24 318.556V172.331C1114.24 167.762 1116.44 165.477 1120.83 165.477H1133.41C1137.8 165.477 1140 167.762 1140 172.331V318.556C1140 323.126 1137.8 325.411 1133.41 325.411H1120.83ZM1120.83 136.536C1116.44 136.536 1114.24 134.252 1114.24 129.682V116.583C1114.24 112.013 1116.44 109.728 1120.83 109.728H1133.41C1137.8 109.728 1140 112.013 1140 116.583V129.682C1140 134.252 1137.8 136.536 1133.41 136.536H1120.83Z" fill="white"/>
</g>
<defs>
<filter id="filter0_ii_6_2" x="0" y="0" width="1154" height="512" filterUnits="userSpaceOnUse" color-interpolation-filters="sRGB">
<feFlood flood-opacity="0" result="BackgroundImageFix"/>
<feBlend mode="normal" in="SourceGraphic" in2="BackgroundImageFix" result="shape"/>
<feColorMatrix in="SourceAlpha" type="matrix" values="0 0 0 0 0 0 0 0 0 0 0 0 0 0 0 0 0 0 127 0" result="hardAlpha"/>
<feOffset dy="1"/>
<feComposite in2="hardAlpha" operator="arithmetic" k2="-1" k3="1"/>
<feColorMatrix type="matrix" values="0 0 0 0 1 0 0 0 0 1 0 0 0 0 1 0 0 0 0.1 0"/>
<feBlend mode="normal" in2="shape" result="effect1_innerShadow_6_2"/>
<feColorMatrix in="SourceAlpha" type="matrix" values="0 0 0 0 0 0 0 0 0 0 0 0 0 0 0 0 0 0 127 0" result="hardAlpha"/>
<feOffset dy="-1"/>
<feComposite in2="hardAlpha" operator="arithmetic" k2="-1" k3="1"/>
<feColorMatrix type="matrix" values="0 0 0 0 0 0 0 0 0 0 0 0 0 0 0 0 0 0 0.1 0"/>
<feBlend mode="normal" in2="effect1_innerShadow_6_2" result="effect2_innerShadow_6_2"/>
</filter>
<filter id="filter1_d_6_2" x="160" y="99" width="192.559" height="314.059" filterUnits="userSpaceOnUse" color-interpolation-filters="sRGB">
<feFlood flood-opacity="0" result="BackgroundImageFix"/>
<feColorMatrix in="SourceAlpha" type="matrix" values="0 0 0 0 0 0 0 0 0 0 0 0 0 0 0 0 0 0 127 0" result="hardAlpha"/>
<feOffset/>
<feGaussianBlur stdDeviation="5"/>
<feComposite in2="hardAlpha" operator="out"/>
<feColorMatrix type="matrix" values="0 0 0 0 0 0 0 0 0 0 0 0 0 0 0 0 0 0 0.2 0"/>
<feBlend mode="normal" in2="BackgroundImageFix" result="effect1_dropShadow_6_2"/>
<feBlend mode="normal" in="SourceGraphic" in2="effect1_dropShadow_6_2" result="shape"/>
</filter>
<radialGradient id="paint0_radial_6_2" cx="0" cy="0" r="1" gradientUnits="userSpaceOnUse" gradientTransform="translate(119.5 103) rotate(55.3342) scale(431.619 406.869)">
<stop stop-color="#6365E3"/>
<stop offset="1" stop-color="#333499"/>
</radialGradient>
</defs>
</svg>
