<svg width="16" height="16" viewBox="0 0 16 16" fill="none" xmlns="http://www.w3.org/2000/svg">
<g clip-path="url(#clip0_5_28)">
<path d="M8 0C8.15333 0 8.30667 0.0314218 8.44667 0.0911233L14.7233 2.60173C15.4567 2.89395 16.0033 3.5758 16 4.39906C15.9833 7.5161 14.6233 13.2192 8.87666 15.8115C8.32 16.0628 7.67333 16.0628 7.11667 15.8115C1.37668 13.2192 0.0166818 7.5161 1.51616e-05 4.39906C-0.00331817 3.5758 0.543347 2.89395 1.27668 2.60173L7.55667 0.0911233C7.69333 0.0314218 7.84667 0 8 0Z" fill="#5C5EE7"/>
<path d="M7.18535 13.3663C7.18535 13.2221 7.2921 13.1051 7.42378 13.1051H8.61592C8.7476 13.1051 8.85435 13.2221 8.85435 13.3663V14.6722C8.85435 14.8164 8.7476 14.9333 8.61592 14.9333H7.42378C7.2921 14.9333 7.18535 14.8164 7.18535 14.6722V13.3663Z" fill="white"/>
<path d="M5.00799 3.76566C4.71694 3.76566 4.57141 3.62751 4.57141 3.3512V2.54779C4.57141 2.27148 4.71694 2.13333 5.00799 2.13333H10.992C11.283 2.13333 11.4286 2.27148 11.4286 2.54779V3.3512C11.4286 3.62751 11.283 3.76566 10.992 3.76566H9.28642V3.76727C8.99537 3.76727 8.84985 3.90543 8.84985 4.18173V10.9262C8.84985 11.16 8.75283 11.2769 8.5588 11.2769H7.44117C7.24713 11.2769 7.15012 11.16 7.15012 10.9262V4.18173C7.15012 3.90543 7.00459 3.76727 6.71354 3.76727V3.76566H5.00799Z" fill="white"/>
</g>
<defs>
<clipPath id="clip0_5_28">
<rect width="16" height="16" fill="white"/>
</clipPath>
</defs>
</svg>
