<svg width="38" height="39" viewBox="0 0 38 39" fill="none" xmlns="http://www.w3.org/2000/svg">
<path d="M19 0C19.2875 0 19.575 0.0608798 19.8375 0.176551L31.6062 5.04085C32.9812 5.60703 34.0062 6.92812 34 8.52317C33.9687 14.5625 31.4187 25.6121 20.6437 30.6347C19.6 31.1218 18.3875 31.1218 17.3438 30.6347C6.58127 25.6121 4.03128 14.5625 4.00003 8.52317C3.99378 6.92812 5.01878 5.60703 6.39377 5.04085L18.1688 0.176551C18.425 0.0608798 18.7125 0 19 0Z" fill="#5C5EE7"/>
<path d="M18.0496 22.9188C18.0496 22.7272 18.1741 22.5719 18.3278 22.5719H19.7186C19.8722 22.5719 19.9968 22.7272 19.9968 22.9188V24.6531C19.9968 24.8447 19.8722 25 19.7186 25H18.3278C18.1741 25 18.0496 24.8447 18.0496 24.6531V22.9188Z" fill="white"/>
<path d="M15.5093 10.1679C15.1698 10.1679 15 9.98445 15 9.61748V8.55045C15 8.18348 15.1698 8 15.5093 8H22.4907C22.8302 8 23 8.18348 23 8.55045V9.61748C23 9.98445 22.8302 10.1679 22.4907 10.1679H20.5008V10.1701C20.1613 10.1701 19.9915 10.3536 19.9915 10.7205V19.6781C19.9915 19.9886 19.8783 20.1438 19.652 20.1438H18.348C18.1217 20.1438 18.0085 19.9886 18.0085 19.6781V10.7205C18.0085 10.3536 17.8387 10.1701 17.4992 10.1701V10.1679H15.5093Z" fill="white"/>
</svg>
